<svg width="22" height="22" viewBox="0 0 22 22" fill="none" xmlns="http://www.w3.org/2000/svg">
<path d="M11 21C16.5228 21 21 16.5228 21 11C21 5.47715 16.5228 1 11 1C5.47715 1 1 5.47715 1 11C1 16.5228 5.47715 21 11 21Z" stroke="#8C8C8C" stroke-width="2" stroke-linecap="round" stroke-linejoin="round"/>
<path d="M8.08984 7.99999C8.32495 7.33166 8.789 6.7681 9.3998 6.40912C10.0106 6.05015 10.7287 5.91893 11.427 6.0387C12.1253 6.15848 12.7587 6.52151 13.2149 7.06352C13.6712 7.60552 13.9209 8.29151 13.9198 8.99999C13.9198 11 10.9198 12 10.9198 12" stroke="#8C8C8C" stroke-width="2" stroke-linecap="round" stroke-linejoin="round"/>
<path d="M11 16H11.01" stroke="#8C8C8C" stroke-width="2" stroke-linecap="round" stroke-linejoin="round"/>
</svg>
