<svg width="69" height="73" viewBox="0 0 69 73" fill="none" xmlns="http://www.w3.org/2000/svg">
<path d="M36.1364 21.4524L36.2287 21.4799L36.2327 21.4754C36.6703 21.5547 37.1045 21.2926 37.2331 20.8585C38.4047 16.9218 42.0958 14.1716 46.2082 14.1716C46.6951 14.1716 47.09 13.7768 47.09 13.2899C47.09 12.803 46.6951 12.4082 46.2082 12.4082C41.1541 12.4082 36.9069 15.7732 35.5432 20.3559C35.404 20.8228 35.6699 21.3133 36.1364 21.4524Z" fill="#25A9DF" stroke="#F8FAFC" stroke-width="0.3"/>
<path d="M56.4522 49.1449H52.0618C51.6578 49.1449 51.3301 48.8172 51.3301 48.4132C51.3301 48.0092 51.6578 47.6815 52.0618 47.6815H56.4522C62.504 47.6815 67.4281 42.7574 67.4281 36.7055C67.4281 30.6536 62.504 25.7296 56.4522 25.7296H56.3466C56.1344 25.7296 55.9326 25.6376 55.7936 25.4771C55.6546 25.3167 55.5918 25.1039 55.6222 24.8938C55.6875 24.4381 55.7204 23.9802 55.7204 23.5344C55.7204 18.2895 51.4528 14.0218 46.2079 14.0218C44.1674 14.0218 42.2215 14.6595 40.5803 15.8663C40.2196 16.1313 39.7074 16.0137 39.4989 15.617C34.8509 6.76622 22.7107 5.57765 16.4166 13.277C13.7652 16.5207 12.7234 20.7401 13.5582 24.8526C13.6502 25.3068 13.3026 25.7301 12.8411 25.7301H12.5479C6.496 25.7301 1.57193 30.6542 1.57193 36.7061C1.57193 42.758 6.496 47.682 12.5479 47.682H16.9382C17.3422 47.682 17.6699 48.0097 17.6699 48.4138C17.6699 48.8178 17.3422 49.1455 16.9382 49.1455H12.5479C5.6889 49.1455 0.108398 43.565 0.108398 36.706C0.108398 30.0394 5.37995 24.5807 11.9735 24.2797C11.3541 20.0131 12.5385 15.7095 15.2835 12.3509C22.0222 4.10692 34.9364 5.03096 40.3955 14.2236C42.1371 13.1317 44.1299 12.559 46.2076 12.559C52.5622 12.559 57.5976 17.9675 57.157 24.2865C63.6897 24.6529 68.8913 30.0828 68.8913 36.7055C68.8913 43.565 63.3108 49.145 56.4518 49.145L56.4522 49.1449Z" fill="#25A9DF"/>
<path d="M15.9584 48C15.9584 58.1699 24.2321 66.4435 34.4019 66.4435C44.5718 66.4435 52.8454 58.1698 52.8454 48C52.8454 37.8301 44.5718 29.5565 34.4019 29.5565C24.2319 29.5565 15.9584 37.8302 15.9584 48ZM17.7222 48C17.7222 38.8031 25.2048 31.3203 34.4019 31.3203C43.5988 31.3203 51.0816 38.803 51.0816 48C51.0816 57.1969 43.5988 64.6797 34.4019 64.6797C25.205 64.6797 17.7222 57.197 17.7222 48Z" fill="#25A9DF" stroke="#F8FAFC" stroke-width="0.3"/>
<path d="M34.0512 55.3643C34.0512 55.7429 34.3583 56.05 34.7369 56.05C35.1154 56.05 35.4226 55.7433 35.4226 55.3643V41.4357C35.4226 41.057 35.1155 40.75 34.7369 40.75C34.3582 40.75 34.0512 41.0571 34.0512 41.4357V55.3643Z" fill="#25A9DF" stroke="#483EA8" stroke-width="0.3"/>
<path d="M34.7365 42.4068L30.9358 46.2075L34.7365 42.4068ZM34.7365 42.4068L38.5373 46.2075C38.671 46.3413 38.847 46.4084 39.0221 46.4084L34.7365 42.4068ZM29.966 46.2076C30.2338 46.4754 30.6681 46.4755 30.9357 46.2076L39.0222 46.4084C39.197 46.4084 39.3731 46.3419 39.5071 46.2075C39.7749 45.9396 39.7749 45.5056 39.507 45.2378L35.2214 40.9521C34.9536 40.6843 34.5192 40.6842 34.2516 40.9521C34.2516 40.9522 34.2515 40.9522 34.2515 40.9522L29.966 45.2378C29.6981 45.5057 29.6981 45.9397 29.966 46.2076Z" fill="#25A9DF" stroke="#483EA8" stroke-width="0.3"/>
</svg>
